<?xml version="1.0" encoding="iso-8859-1"?>
<!-- Generator: Adobe Illustrator 19.0.0, SVG Export Plug-In . SVG Version: 6.00 Build 0)  -->
<svg version="1.1" id="Capa_1" xmlns="http://www.w3.org/2000/svg" xmlns:xlink="http://www.w3.org/1999/xlink" x="0px" y="0px"
	 viewBox="0 0 386.645 386.645" style="enable-background:new 0 0 386.645 386.645;" xml:space="preserve">
<g fill="currentColor">
	<g>
		<path d="M379.227,7.338c-9.6-9.5-25-9.8-34.9-0.7l-169.4,155.8l-34.5,31.7l-6.5,6l-81.5,55.2c-4.6,3.1-5.8,9.3-2.7,13.9
			c0.2,0.4,0.5,0.7,0.8,1c-6.9,2.6-13.2,6.6-18.4,11.8c-11.6,11.6-20.5,31.1-26.5,57.9c-2.7,11.9-4.5,23.9-5.6,36
			c-0.4,5.5,3.7,10.3,9.3,10.7c0.2,0,0.5,0,0.7,0s0.5,0,0.7,0c12.1-1,24.2-2.9,36-5.6c26.9-6,46.3-14.9,57.9-26.5
			c5.2-5.2,9.2-11.5,11.8-18.4c1.8,1.6,4.2,2.5,6.6,2.5c0.3,0,0.6,0,1,0c3-0.3,5.7-1.9,7.3-4.4l55.1-81.5l6-6.5l187.6-203.9
			C389.127,32.338,388.827,17.038,379.227,7.338z M90.527,340.438c-14.7,14.7-48.3,22.1-69.2,25c2.9-20.9,10.3-54.6,25-69.2
			c5.6-5.6,13.1-8.9,21.1-9.1l32.3,32.3C99.327,327.238,96.127,334.838,90.527,340.438z M170.327,240.938l-48.7,72l-36.9-36.9
			c-0.6-4.4-4.1-7.8-8.4-8.5h-0.1l-2.5-2.5l72-48.7c0.4-0.3,0.7-0.5,1.1-0.9l24.3,24.4
			C170.827,240.238,170.527,240.538,170.327,240.938z M184.627,225.138l-23.2-23.2l19.9-18.2l21.6,21.6L184.627,225.138z
			 M365.327,28.838l-148.9,161.7l-20.4-20.4l161.7-148.8c2.1-2,5.5-1.9,7.4,0.3C367.127,23.638,367.127,26.838,365.327,28.838z"/>
	</g>
</g>
<g>
</g>
<g>
</g>
<g>
</g>
<g>
</g>
<g>
</g>
<g>
</g>
<g>
</g>
<g>
</g>
<g>
</g>
<g>
</g>
<g>
</g>
<g>
</g>
<g>
</g>
<g>
</g>
<g>
</g>
</svg>
