<svg height="511pt" viewBox="-2 0 511 511.99996" width="511pt" xmlns="http://www.w3.org/2000/svg"><path fill="currentColor" d="m497.65625 64.214844c-3-1.828125-6.722656-2.019532-9.894531-.503906l-81.324219 38.308593c-28.671875 13.503907-47.914062 41.332031-50.425781 72.925781l-2.097657 25.980469-42.136718 69.988281v-29.882812c0-.097656-.050782-.179688-.050782-.285156-.015624-1.027344-.179687-2.050782-.496093-3.03125l-19.605469-58.816406 40.03125-80.035157c1.757812-3.5625 1.351562-7.816406-1.050781-10.984375l-62.9375-83.917968c-3.8125-4.632813-10.660157-5.296876-15.296875-1.484376-.542969.445313-1.039063.945313-1.484375 1.484376l-62.941407 83.917968c-2.382812 3.179688-2.769531 7.429688-.996093 10.984375l40.03125 80.035157-19.605469 58.816406c-.316406.980468-.480469 2.003906-.496094 3.03125v.285156 41.863281l-65.351562-99.191406c-.082032-.113281-.207032-.179687-.28125-.28125-.632813-.875-1.390625-1.644531-2.253906-2.289063-.199219-.144531-.378907-.3125-.589844-.449218-.207032-.136719-.242188-.210938-.375-.285156l-38.457032-22.238282-15.964843-24.230468-23.078125-35.035157c-2.648438-4.015625-7.691406-5.714843-12.230469-4.121093l-40.816406 14.316406c-5.457031 1.941406-8.3125 7.9375-6.371094 13.394531.28125.800781.660156 1.558594 1.128906 2.265625l28.855469 43.808594 15.914062 24.21875 5.242188 44.121094c.027344.140624.0625.28125.105469.417968.046875.222656.101562.445313.167969.660156.238281 1.109376.65625 2.175782 1.238281 3.148438.074219.105469.074219.242188.148437.347656.074219.101563 155.992188 236.425782 156.746094 237.066406 7.671875 20.152344 26.996094 33.46875 48.558594 33.460938 4.28125-.003906 8.546875-.523438 12.703125-1.550781 13.515625-3.316407 25.144531-11.894531 32.296875-23.835938l139.511718-231.441406 22.027344-13.941406c11.574219-7.359375 21.285156-17.292969 28.386719-29.027344 9.011719-14.925781 13.394531-32.195313 12.585937-49.613281l-4.089843-89.8125c-.125-3.507813-1.992188-6.722656-4.980469-8.5625zm-75.976562 186.925781-16.230469 26.949219-53.90625-32.515625 16.25-26.949219zm-193.820313 158.953125v-158.574219h62.9375v54.191407zm18.054687-221.511719h26.832032l13.980468 41.957031h-54.796874zm13.414063-73.429687c-5.792969 0-10.488281-4.695313-10.488281-10.488282 0-5.792968 4.695312-10.488281 10.488281-10.488281s10.492187 4.695313 10.492187 10.488281c0 5.792969-4.699218 10.488282-10.492187 10.488282zm0-87.410156 50.65625 67.535156-36.160156 72.324218h-4.007813v-33.398437c16.386719-5.792969 24.976563-23.773437 19.179688-40.160156-5.792969-16.386719-23.769532-24.972657-40.15625-19.179688-16.386719 5.792969-24.972656 23.773438-19.179688 40.160157 3.167969 8.960937 10.21875 16.011718 19.179688 19.179687v33.398437h-4.007813l-36.160156-72.324218zm-146.507813 162.316406-3.085937 2.035156-38.632813 25.449219-3.554687-29.726563c-.195313-1.617187-.761719-3.164062-1.660156-4.523437l-11.535157-17.515625 17.515626-11.539063 11.539062 17.515625c.898438 1.359375 2.097656 2.488282 3.503906 3.304688zm-65.300781-72.808594 12.796875 19.4375-17.515625 11.539062-15.734375-23.808593zm55.984375 104.050781 26.226563-17.320312 77.148437 117.035156v114.410156l-129.652344-196.796875zm182.773438 254.414063c-8.894532 14.933594-28.207032 19.832031-43.140625 10.9375-14.933594-8.890625-19.828125-28.207032-10.9375-43.140625.066406-.105469.128906-.207031.191406-.3125l79.207031-131.363281h.179688v-.28125l28.929687-47.992188 26.949219 16.28125 26.988281 16.214844zm189.945312-274.386719c-5.410156 8.9375-12.816406 16.507813-21.636718 22.109375l-18.632813 11.800781-30.417969-18.3125-30.421875-18.316406 1.730469-22.027344c1.921875-24.085937 16.589844-45.296875 38.445312-55.597656l67.132813-31.605469 1.335937 29.234375c-1.050781-.113281-2.113281-.070312-3.148437.136719l-25.40625 6.296875c-23.644531 5.773437-41.949219 24.484375-47.203125 48.25-1.265625 5.652344 2.289062 11.257813 7.941406 12.523437.753906.175782 1.523438.265626 2.296875.265626 4.90625-.007813 9.15625-3.414063 10.226563-8.203126 3.546875-15.980468 15.855468-28.5625 31.753906-32.457031l24.503906-6.074219 1.101563 24.128907c.613281 13.285156-2.726563 26.457031-9.601563 37.847656zm0 0"/></svg>