<svg width="480" height="397" viewBox="0 0 480 397" fill="none" xmlns="http://www.w3.org/2000/svg">
<path d="M423.924 138.861C423.924 138.261 423.924 137.661 423.924 137.061C423.966 61.9499 363.111 1.02691 288.001 0.983909C242.306 0.957909 199.653 23.8819 174.46 62.0049C124.115 45.1979 69.677 72.3859 52.87 122.731C49.605 132.51 47.935 142.751 47.925 153.061C47.925 153.741 47.925 154.429 47.925 155.117C13.714 164.004 -6.81503 198.942 2.07197 233.152C9.39197 261.331 34.81 281.019 63.925 281.061H207.389C211.807 281.061 215.389 277.479 215.389 273.061C215.389 268.643 211.807 265.061 207.389 265.061H63.924C37.415 264.903 16.053 243.286 16.21 216.777C16.351 193.011 33.863 172.927 57.388 169.549C61.617 168.98 64.654 165.192 64.292 160.941C64.076 158.365 63.924 155.717 63.924 153.061C63.976 108.825 99.879 73.0069 144.114 73.0599C154.608 73.0719 164.997 75.1469 174.692 79.1649C178.365 80.6909 182.602 79.2869 184.636 75.8689C218.373 18.8249 291.966 -0.0700912 349.011 33.6679C385.558 55.2829 407.962 94.6009 407.924 137.061C407.924 139.709 407.86 142.277 407.636 144.853C407.265 149.154 410.373 152.974 414.66 153.485C445.354 157.283 467.157 185.244 463.36 215.938C459.895 243.94 436.139 264.99 407.924 265.061H271.636C267.218 265.061 263.636 268.643 263.636 273.061C263.636 277.479 267.218 281.061 271.636 281.061H407.924C447.689 281.062 479.925 248.827 479.925 209.062C479.926 175.461 456.685 146.327 423.924 138.861Z" fill="currentColor"/>
<path d="M166.387 315.603C163.393 318.703 163.393 323.618 166.387 326.719L234.267 394.599C237.391 397.722 242.455 397.722 245.579 394.599L313.459 326.719C316.529 323.541 316.441 318.476 313.263 315.407C310.163 312.413 305.248 312.413 302.147 315.407L247.923 369.631L247.923 145.063C247.923 140.645 244.341 137.063 239.923 137.063C235.505 137.063 231.923 140.645 231.923 145.063L231.923 369.631L177.699 315.407C174.521 312.338 169.456 312.425 166.387 315.603Z" fill="currentColor"/>
</svg>
