<?xml version="1.0" encoding="iso-8859-1"?>
<!-- Generator: Adobe Illustrator 19.0.0, SVG Export Plug-In . SVG Version: 6.00 Build 0)  -->
<svg version="1.1" id="Capa_1" xmlns="http://www.w3.org/2000/svg" xmlns:xlink="http://www.w3.org/1999/xlink" x="0px" y="0px"
	 viewBox="0 0 479.925 479.925" style="enable-background:new 0 0 479.925 479.925;" xml:space="preserve">
<g fill="currentColor">
	<g>
		<g>
			<path d="M423.924,179.861c0-0.6,0-1.2,0-1.8c0.042-75.111-60.813-136.034-135.923-136.077
				c-45.695-0.026-88.348,22.898-113.541,61.021C124.115,86.198,69.677,113.386,52.87,163.731c-3.265,9.779-4.935,20.02-4.945,30.33
				c0,0.68,0,1.368,0,2.056c-34.211,8.887-54.74,43.825-45.853,78.035c7.32,28.179,32.738,47.867,61.853,47.909h143.464
				c4.418,0,8-3.582,8-8s-3.582-8-8-8H63.924c-26.509-0.158-47.871-21.775-47.714-48.284c0.141-23.766,17.653-43.85,41.178-47.228
				c4.229-0.569,7.266-4.357,6.904-8.608c-0.216-2.576-0.368-5.224-0.368-7.88c0.052-44.236,35.955-80.054,80.19-80.001
				c10.494,0.012,20.883,2.087,30.578,6.105c3.673,1.526,7.91,0.122,9.944-3.296c33.737-57.044,107.33-75.939,164.375-42.201
				c36.547,21.615,58.951,60.933,58.913,103.393c0,2.648-0.064,5.216-0.288,7.792c-0.371,4.301,2.737,8.121,7.024,8.632
				c30.694,3.798,52.497,31.759,48.7,62.453c-3.465,28.002-27.221,49.052-55.436,49.123H271.636c-4.418,0-8,3.582-8,8s3.582,8,8,8
				h136.288c39.765,0.001,72.001-32.234,72.001-71.999C479.926,216.461,456.685,187.327,423.924,179.861z"/>
			<path d="M313.46,259.401c2.994-3.1,2.994-8.015,0-11.116l-67.88-67.88c-3.124-3.123-8.188-3.123-11.312,0l-67.88,67.88
				c-3.07,3.178-2.982,8.243,0.196,11.312c3.1,2.994,8.015,2.994,11.116,0l54.224-54.224v224.568c0,4.418,3.582,8,8,8s8-3.582,8-8
				V205.373l54.224,54.224C305.326,262.666,310.391,262.579,313.46,259.401z"/>
		</g>
	</g>
</g>
<g>
</g>
<g>
</g>
<g>
</g>
<g>
</g>
<g>
</g>
<g>
</g>
<g>
</g>
<g>
</g>
<g>
</g>
<g>
</g>
<g>
</g>
<g>
</g>
<g>
</g>
<g>
</g>
<g>
</g>
</svg>
