<?xml version="1.0" encoding="iso-8859-1"?>
<!-- Generator: Adobe Illustrator 19.0.0, SVG Export Plug-In . SVG Version: 6.00 Build 0)  -->
<svg version="1.1" id="Capa_1" xmlns="http://www.w3.org/2000/svg" xmlns:xlink="http://www.w3.org/1999/xlink" x="0px" y="0px"
	 viewBox="0 0 468.374 468.374" style="enable-background:new 0 0 468.374 468.374;" xml:space="preserve">
<path style="fill:#EBF0F3;" d="M30.456,31.319v414.223c0,12.587,10.204,22.791,22.791,22.791h361.877
	c12.587,0,22.791-10.204,22.791-22.791V31.319H30.456z"/>
<g>
	<path style="fill:#2F4859;" d="M73.34,153.628v126.884c0,9.87,8.001,17.872,17.872,17.872h285.947
		c9.87,0,17.872-8.001,17.872-17.872V153.628c0-9.87-8.001-17.872-17.872-17.872H91.212C81.341,135.756,73.34,143.758,73.34,153.628
		z"/>
	<path style="fill:#2F4859;" d="M460.281,72.795H8.093C3.624,72.795,0,76.415,0,80.888V186.98
		c0,130.592,105.057,236.842,234.187,236.842s234.187-106.25,234.187-236.842V80.888C468.374,76.415,464.75,72.795,460.281,72.795z
		 M452.188,186.98c0,121.669-97.794,220.657-218.001,220.657S16.186,308.65,16.186,186.98V88.981h436.002V186.98z"/>
</g>
<rect x="30.455" y="31.316" style="fill:#EBF0F3;" width="407.477" height="94.096"/>
<path style="fill:#D5D6DB;" d="M465.209,24.238c0,13.353-10.44,24.198-23.226,24.198H26.415c-12.786,0-23.226-10.845-23.226-24.198
	c0-13.353,10.44-24.198,23.226-24.198h415.568C454.77,0.04,465.209,10.885,465.209,24.238z"/>
<path style="fill:#CE412D;" d="M374.893,0.04v198.922c0,15.296-8.983,27.678-20.151,27.678c-11.087,0-20.151-12.382-20.151-27.678
	v-49.609c-3.561,7.527-9.792,12.544-16.833,12.544c-7.041,0-13.191-5.018-16.833-12.544v49.609c0,15.296-8.983,27.678-20.151,27.678
	c-11.088,0-20.071-12.382-20.071-27.678V0.04H374.893z"/>
<path style="fill:#D15241;" d="M264.021,0.04v166.55c0,5.584-1.214,10.764-3.318,15.134c-0.728,1.619-1.619,3.075-2.59,4.451
	c-3.641,5.018-8.659,8.093-14.243,8.093c-11.168,0-20.152-12.382-20.152-27.678v-17.238c-3.641,7.527-9.792,12.544-16.833,12.544
	c-11.168,0-20.152-12.382-20.152-27.678V0.04H264.021z"/>
<g>
</g>
<g>
</g>
<g>
</g>
<g>
</g>
<g>
</g>
<g>
</g>
<g>
</g>
<g>
</g>
<g>
</g>
<g>
</g>
<g>
</g>
<g>
</g>
<g>
</g>
<g>
</g>
<g>
</g>
</svg>
