<svg height="510pt" viewBox="-1 0 510 510.2205" width="510pt" xmlns="http://www.w3.org/2000/svg"><path d="m64.652344 160.484375 152-56.96875c-7.367188-13.132813-4.550782-29.632813 6.761718-39.578125 11.316407-9.941406 28.039063-10.617188 40.121094-1.621094 5.578125-16.832031 18.808594-30.019531 35.660156-35.539062 16.851563-5.523438 35.320313-2.726563 49.777344 7.539062 19.292969-23.527344 51.289063-32.394531 79.933594-22.144531 28.648438 10.25 47.761719 37.398437 47.746094 67.824219-.03125 3.671875-.355469 7.335937-.957032 10.960937 14.121094 5.691407 23.765626 18.933594 24.855469 34.121094 1.085938 15.1875-6.570312 29.667969-19.738281 37.320313 2.550781 6.914062 3.851562 14.226562 3.839844 21.597656-.007813 26.011718-15.761719 49.429687-39.851563 59.246094-24.085937 9.816406-51.722656 4.074218-69.90625-14.527344-13.039062 15.03125-33.078125 22.003906-52.628906 18.316406-19.546875-3.691406-35.667969-17.488281-42.332031-36.234375-5.871094 3.367187-12.511719 5.160156-19.28125 5.199219-12.824219 0-24.871094-6.152344-32.394532-16.539063-7.519531-10.390625-9.605468-23.753906-5.605468-35.941406l-152 17.898437zm0 0" fill="#91e8ed"/><path d="m19.59375 319.578125 150.351562-54.722656 43.777344 120.28125-150.351562 54.722656zm0 0" fill="#00c3ff"/><path d="m159.007812 234.78125-74.511718-40.984375-45.105469 16.414063-30.738281 79.296874zm0 0" fill="#91e8ed"/><path d="m74.320312 469.925781 150.351563-54.722656 10.941406 30.066406-150.347656 54.726563zm0 0" fill="#91e8ed"/><path d="m63.378906 439.855469 150.347656-54.722657 10.945313 30.070313-150.351563 54.722656zm0 0" fill="#ffea00"/><path d="m159.007812 234.78125-150.355468 54.726562 10.945312 30.066407 150.351563-54.722657zm0 0" fill="#ffea00"/><path d="m22.972656 165.105469 45.105469-16.414063 16.417969 45.105469-45.105469 16.414063zm0 0" fill="#ffea00"/><g fill="#fff"><path d="m55.828125 348.949219 15.027344-5.472657 21.890625 60.140626-15.027344 5.46875zm0 0"/><path d="m91.378906 353.042969 15.027344-5.46875 16.417969 45.101562-15.027344 5.472657zm0 0"/><path d="m126.921875 357.136719 15.027344-5.46875 10.945312 30.070312-15.027343 5.46875zm0 0"/><path d="m424.070312 97.597656c-3.492187-12.246094-13.910156-21.253906-26.527343-22.945312-11.078125-1.480469-22.117188 2.980468-29.058594 11.746094l-4.582031 5.660156-6.070313-4c-2.988281-2.039063-6.40625-3.359375-9.984375-3.863282-8.496094-1.105468-16.945312 2.363282-22.210937 9.121094l-12.65625-9.777344c8.757812-11.273437 22.839843-17.058593 36.992187-15.199218 3.691406.5 7.289063 1.527344 10.679688 3.058594 10.449218-9.859376 24.792968-14.460938 39.027344-12.523438 18.917968 2.539062 34.535156 16.046875 39.773437 34.402344zm0 0"/><path d="m350.292969 203.148438c-19.039063.027343-35.421875-13.449219-39.070313-32.136719-1.269531-.429688-2.515625-.929688-3.726562-1.503907-12.914063-6.101562-21.613282-18.609374-22.84375-32.839843l16-1.34375c.742187 10.761719 8.734375 19.625 19.363281 21.472656l6.152344 1.199219.300781 6.265625c.316406 7.867187 4.492188 15.074219 11.164062 19.257812 6.671876 4.179688 14.980469 4.800781 22.199219 1.652344l6.335938 14.6875c-5.011719 2.164063-10.414063 3.285156-15.875 3.289063zm0 0"/><path d="m411.222656 196.933594c-7.9375 0-15.695312-2.363282-22.289062-6.785156l8.914062-13.289063c8.289063 5.570313 19.15625 5.421875 27.292969-.363281 8.136719-5.789063 11.839844-16.011719 9.296875-25.667969-1.347656-5.1875-4.40625-9.765625-8.679688-13l9.671876-12.742187c13.671874 10.386718 19.1875 28.34375 13.707031 44.617187-5.484375 16.273437-20.742188 27.230469-37.914063 27.230469zm0 0"/></g><path d="m90.980469 188.238281-18.125-49.792969-60.136719 21.878907 18.121094 49.800781-30.730469 79.296875 80.375 220.796875 165.386719-60.191406-80.375-220.800782zm-27.6875-29.296875 10.960937 30.070313-30.085937 10.984375-10.945313-30.113282zm-17.757813 57.550782 38.320313-13.9375 55.878906 30.746093-117.25 42.65625zm-26.625 77.792968 135.34375-49.25 5.472656 15.042969-135.34375 49.246094zm206.457032 146.207032-135.320313 49.257812-5.472656-15.042969 135.320312-49.253906zm-10.945313-30.09375-135.320313 49.277343-5.472656-15.039062 135.320313-49.257813zm-146.261719 19.199218-38.304687-105.242187 135.3125-49.246094 38.308593 105.238281zm0 0"/><path d="m508.652344 127.996094c.023437-17.269532-9.265625-33.214844-24.300782-41.710938.207032-2.207031.300782-4.273437.300782-6.289062 0-32.5-19.664063-61.769532-49.753906-74.058594-30.085938-12.289062-64.621094-5.148438-87.371094 18.058594-15.171875-8.382813-33.097656-10.25-49.667969-5.164063-16.570313 5.085938-30.363281 16.683594-38.222656 32.132813-4.75-1.960938-9.839844-2.972656-14.984375-2.96875-12.53125.011718-24.335938 5.894531-31.894532 15.890625-7.5625 10-10.003906 22.957031-6.597656 35.023437l-100.3125 37.597656 5.597656 14.992188 116.730469-43.75-4.5625-8.136719c-1.960937-3.554687-2.980469-7.554687-2.960937-11.617187 0-13.253906 10.746094-24 24-24 5.09375.011718 10.042968 1.675781 14.105468 4.746094l8.863282 6.574218 3.496094-10.464844c4.78125-14.425781 16.121093-25.726562 30.5625-30.460937 14.441406-4.730469 30.269531-2.335937 42.664062 6.460937l6.078125 4.328126 4.738281-5.765626c17.140625-20.914062 45.578125-28.796874 71.042969-19.691406 25.464844 9.105469 42.457031 33.230469 42.449219 60.273438-.027344 3.261718-.316406 6.515625-.863282 9.726562l-.976562 6.273438 5.839844 2.402344c11.3125 4.535156 19.046875 15.125 19.917968 27.28125.875 12.15625-5.265624 23.746093-15.8125 29.851562l-5.765624 3.386719 2.316406 6.277343c2.21875 6.019532 3.351562 12.386719 3.34375 18.800782-.007813 22.761718-13.792969 43.253906-34.875 51.839844-21.082032 8.585937-45.261719 3.558593-61.171875-12.71875l-6.054688-6.191407-5.695312 6.542969c-11.175781 12.882812-28.351563 18.859375-45.109375 15.695312-16.753906-3.164062-30.570313-14.992187-36.277344-31.0625l-3.199219-8.9375-8.261719 4.664063c-4.671874 2.699219-9.960937 4.136719-15.355468 4.167969-10.257813 0-19.898438-4.921875-25.914063-13.230469-6.019531-8.3125-7.683593-19.003906-4.484375-28.753906l3.894532-11.894531-118.398438 13.933593 1.871094 15.890625 95.199218-11.199218c-.167968 1.085937-.167968 2.167968-.167968 3.253906.027344 26.5 21.503906 47.972656 48 48 5.179687-.011719 10.316406-.894532 15.203125-2.609375 9.058593 17.554687 25.726562 29.933593 45.152343 33.535156 19.421876 3.597656 39.417969-1.988281 54.167969-15.132813 21.542969 17.554688 51.261719 21.140626 76.367188 9.21875 25.101562-11.917968 41.101562-37.222656 41.109375-65.011718.011718-6.195313-.796875-12.367188-2.398438-18.351563 11.652344-9.007812 18.449219-22.921875 18.398438-37.648437zm0 0"/><path d="m276.652344 295.996094h16v16h-16zm0 0"/><path d="m324.652344 303.996094h16v16h-16zm0 0"/><path d="m308.652344 271.996094h16v16h-16zm0 0"/><path d="m260.652344 255.996094h16v16h-16zm0 0"/><path d="m468.652344 263.996094h16v16h-16zm0 0"/><path d="m444.652344 295.996094h16v16h-16zm0 0"/><path d="m412.652344 279.996094h16v16h-16zm0 0"/><path d="m356.652344 279.996094h16v16h-16zm0 0"/><path d="m380.652344 311.996094h16v16h-16zm0 0"/></svg>