<svg width="480" height="480" viewBox="0 0 480 480" fill="none" xmlns="http://www.w3.org/2000/svg">
<path d="M240 480C107.453 480 0 372.547 0 240C0 107.453 107.453 0 240 0C372.547 0 480 107.453 480 240C479.852 372.484 372.484 479.852 240 480ZM240 16C116.289 16 16 116.289 16 240C16 363.711 116.289 464 240 464C363.711 464 464 363.711 464 240C463.859 116.348 363.652 16.1406 240 16Z" fill="currentColor"/>
<path d="M376 232H248V104C248 99.582 244.418 96 240 96C235.582 96 232 99.582 232 104V232H104C99.582 232 96 235.582 96 240C96 244.418 99.582 248 104 248H232V376C232 380.418 235.582 384 240 384C244.418 384 248 380.418 248 376V248H376C380.418 248 384 244.418 384 240C384 235.582 380.418 232 376 232Z" fill="currentColor"/>
</svg>
